<svg id="BioInteractive_Logo" data-name="BioInteractive Logo" xmlns="http://www.w3.org/2000/svg" xmlns:xlink="http://www.w3.org/1999/xlink" viewBox="0 0 278.63 61.73"><defs><style>.cls-1{fill:#058d96;}.cls-2{fill:#00a450;}.cls-3{fill:#52b448;}.cls-4{fill:#8ac341;}.cls-5{fill:none;stroke:#000;stroke-miterlimit:10;stroke-width:0.5px;}.cls-6{fill:url(#New_Gradient_Swatch_5);}.cls-7{fill:#fff;}</style><linearGradient id="New_Gradient_Swatch_5" x1="257.16" y1="26.81" x2="295.17" y2="26.81" gradientUnits="userSpaceOnUse"><stop offset="0" stop-color="#058d96"/><stop offset="1" stop-color="#8ac341"/></linearGradient></defs><title>BioInteractive_black_logo_long_RGB</title><g id="Logo"><path class="cls-1" d="M18.2,40h5.14v6.52h.05a5,5,0,0,1,4.21-1.79,4.34,4.34,0,0,1,4.62,4.57v9.25H27.09V51.46c0-1.56-.18-2.65-1.69-2.65-.88,0-2.05.44-2.05,2.6v7.12H18.2Z" transform="translate(-18.2 -12.87)"/><path class="cls-2" d="M34.48,40h5.14v6.52h.05a5,5,0,0,1,4.21-1.79,4.34,4.34,0,0,1,4.62,4.57v9.25H43.37V51.46c0-1.56-.18-2.65-1.69-2.65-.88,0-2.05.44-2.05,2.6v7.12H34.48Z" transform="translate(-18.2 -12.87)"/><path class="cls-3" d="M50.75,45h5v1.79h.05a4.87,4.87,0,0,1,4.42-2.13,4,4,0,0,1,3.64,2.1,5.25,5.25,0,0,1,4.6-2.1A4.26,4.26,0,0,1,73,49.27v9.25H67.9v-7.3c0-1.27-.13-2.42-1.69-2.42-1.3,0-1.74,1-1.74,2.42v7.3H59.33v-7.3c0-1.27-.13-2.42-1.69-2.42-1.3,0-1.74,1-1.74,2.42v7.3H50.75Z" transform="translate(-18.2 -12.87)"/><rect class="cls-4" x="57.03" y="32.17" width="5.14" height="13.48"/><path class="cls-4" d="M80.51,43.39a2.82,2.82,0,1,0-5.41,0Z" transform="translate(-18.2 -12.87)"/><line class="cls-5" x1="72.14" y1="24.21" x2="72.14" y2="61.73"/><path d="M263.45,43.34a2.84,2.84,0,1,0-5.55-.81,2.79,2.79,0,0,0,.12.81Z" transform="translate(-18.2 -12.87)"/><path d="M126.37,43.39a2.8,2.8,0,0,0,.12-.81,2.84,2.84,0,1,0-5.67,0,2.79,2.79,0,0,0,.12.81Z" transform="translate(-18.2 -12.87)"/><path d="M101.42,58.47V39.82h8.91c4.2,0,7.54,1,7.54,4.69a4.91,4.91,0,0,1-2.43,4.07,4.17,4.17,0,0,1,3.11,4.27c0,4.17-3.19,5.62-8,5.62Zm6.11-14.29v3.11h2.54c1.22,0,2.1-.54,2.1-1.63,0-1.45-1.19-1.48-2.49-1.48Zm0,6.5v3.44h2.67c1.5,0,2.64-.31,2.64-1.71,0-1.63-1.42-1.74-3.37-1.74Z" transform="translate(-18.2 -12.87)"/><path d="M121.05,58.47V44.9h5.39V58.47Z" transform="translate(-18.2 -12.87)"/><path d="M136.41,44.51c4.79,0,7.74,2.82,7.74,7,0,5-3.37,7.3-7.72,7.3s-7.72-2.38-7.72-7S131.83,44.51,136.41,44.51Zm-2.31,7c0,2.56,1,3.68,2.33,3.68s2.33-1.11,2.33-3.68c0-2-.88-3.5-2.28-3.42C134.65,48.13,134.1,50,134.1,51.55Z" transform="translate(-18.2 -12.87)"/><path d="M146.8,58.47V39.82h6.11V58.47Z" transform="translate(-18.2 -12.87)"/><path d="M155.89,44.9h4.92V47a5.32,5.32,0,0,1,4.58-2.51c3.57,0,5.26,2.1,5.26,5.83v8.13h-5.39V51.29c0-1.35-.36-2.54-1.89-2.54s-2.1,1.06-2.1,2.8v6.91h-5.39Z" transform="translate(-18.2 -12.87)"/><path d="M181.86,58.47c-7.07.39-7.93-.1-7.93-4.79V48H172V44.9h2V40.68h5.31V44.9h2.59V48h-2.59v4.92c0,1.24.18,1.68,1.68,1.68h.86Z" transform="translate(-18.2 -12.87)"/><path d="M189.09,52.9a2.61,2.61,0,0,0,2.67,2.67,2.15,2.15,0,0,0,2-1.19h5.15c-.93,3.37-4.35,4.48-7.51,4.48-4.35,0-7.72-2.49-7.72-7s3.34-7.3,7.69-7.3c5,0,8.05,3.47,8,8.39Zm4.9-2.75a2.44,2.44,0,0,0-2.38-2.36,2.24,2.24,0,0,0-2.51,2.36Z" transform="translate(-18.2 -12.87)"/><path d="M201.26,44.9h4.9v2.75h.05a4.09,4.09,0,0,1,4.17-3.13,6.32,6.32,0,0,1,.7.08V50a8.09,8.09,0,0,0-1.11-.16c-2.2,0-3.32,1-3.32,4v4.69h-5.39Z" transform="translate(-18.2 -12.87)"/><path d="M222,58.47,221.75,57a6.78,6.78,0,0,1-5.1,1.84c-2.56,0-4.84-1.27-4.84-4.09,0-6.16,9.66-3.37,9.66-5.9,0-1-1.19-1.11-1.76-1.11-.75,0-1.76.16-1.89,1.32h-5.18c0-2.87,2-4.56,7.41-4.56,6.42,0,6.81,2.38,6.81,5.62v6.34a1.76,1.76,0,0,0,.73,1.74v.26Zm-.54-6c-1.76.85-4.09.44-4.09,2.2,0,.67.65,1.14,1.71,1.14C221,55.8,221.59,54.32,221.47,52.46Z" transform="translate(-18.2 -12.87)"/><path d="M238.71,50.08a2,2,0,0,0-.57-1.4,1.81,1.81,0,0,0-1.4-.54c-2,0-2.36,2.1-2.36,3.7,0,2,.78,3.39,2.36,3.39a2,2,0,0,0,2.1-2h5.44a5.75,5.75,0,0,1-2.54,4.38,9.15,9.15,0,0,1-5,1.27c-4.38,0-7.74-2.46-7.74-7s3.26-7.3,7.74-7.3c3.62,0,7,1.55,7.43,5.57Z" transform="translate(-18.2 -12.87)"/><path d="M255.39,58.47c-7.07.39-7.92-.1-7.92-4.79V48h-1.92V44.9h2V40.68h5.31V44.9h2.59V48h-2.59v4.92c0,1.24.18,1.68,1.68,1.68h.85Z" transform="translate(-18.2 -12.87)"/><path d="M258,58.47V44.9h5.39V58.47Z" transform="translate(-18.2 -12.87)"/><path d="M265.06,44.9h5.39l2.38,8.57,2.36-8.57h5.18l-4.58,13.57h-6Z" transform="translate(-18.2 -12.87)"/><path d="M286.55,52.9a2.61,2.61,0,0,0,2.67,2.67,2.15,2.15,0,0,0,2-1.19h5.15c-.93,3.37-4.35,4.48-7.51,4.48-4.35,0-7.72-2.49-7.72-7s3.34-7.3,7.69-7.3c5,0,8.05,3.47,8,8.39Zm4.89-2.75a2.44,2.44,0,0,0-2.38-2.36,2.24,2.24,0,0,0-2.51,2.36Z" transform="translate(-18.2 -12.87)"/><path class="cls-6" d="M257.71,13c-.43-.21-.54-.08-.54.23s.23,12.3.23,12.3,0,.73.47.23l2.34-2.49s.39-.55.7-.08,4,5.37,4,5.37a2,2,0,0,1-1.95.86,8.61,8.61,0,0,0,.16-1.21c0-.4-.33-1.06-1-.9s-.52.67-.15,1.2.15.7,0,.75-.43-.32-.51-.66-.36-1.37-1-.83.14.85.35,1.31.38.8,0,.75-.84-.81-1.24-.86-1.51.6.74,1.36c.26.09.63.37.23.57s-.5-.1-.85,0-.55.4-.35.7,1,.29,1.36.09a2.08,2.08,0,0,0,.87-.58c.17-.26.25-.35.65-.2a4.36,4.36,0,0,0,2,.55,3.21,3.21,0,0,0,2.16-1.08c.25-.36.5-.67.8-.27s3.81,3.76,11.68,2.56a1,1,0,0,1,1.25,1,5.19,5.19,0,0,0,2,3.55c.54.4.48.68.08,1.34a1.73,1.73,0,0,0,.42,2c.56.12.54-.81.49-1.06s-.18-1,.23-1,.4.55.4,1.05-.1,1,.35,1.15.9.23,1-.41-.16-.74-.36-1-.46-.61-.06-.88.46.44,1,.83,1.08-.29.65-.85-1.1-.65-1.1-1,.21-.2.81-.27c.36,0,.8-.15.65-.72s-.59-.46-1.83.07-1.48-1-1.48-1.43-.05-.9-.06-2,.2-1.09.86-1.08c2.73,0,5.06.28,10.66,6.66.4.45.55.46.41-.5-.17-1.19-2.18-8.6-8.37-10.73-.28-.1-.9-.15-.3-1.7s-.8-3.86-.85-4-.1-.35.4-.6a1,1,0,0,0,.75-1.28.67.67,0,0,0-1.15-.42c-.38.32-.17,1.14-.5,1.1s-.18-.45-.11-1.09-.6-.82-1.06-.52a.9.9,0,0,0-.18,1.23c.2.35.63.55.29.88s-.74-.31-.85-.61c-.2-.55-.73-1.18-1.45-.36-.58.65.28.86.85,1.18s.55.85.15.85-.88-.78-1.21,0a.72.72,0,0,0,.74,1c.5-.1,1-.42,1.52-.27s.5.6.35,1-1.35,2.61-1.35,2.61,0,.2-1,.25-5.41.45-7.82-.3-2.41-.9-2-1.45.85-1.2,1.4-1.05a2.89,2.89,0,0,1,1.41,1.18c.27.43.87.64,1.13.22s-.44-.67-.64-.85-.25-.45.2-.45.91.31,1.26.26a.49.49,0,0,0,.35-.79c-.23-.39-1-.33-1.4-.42s0-.44,1.05-.55.44-1.8-.49-1c-.37.32-.46.45-.76.55s-.54-.19-.29-.49.88-.48.75-.83a.57.57,0,0,0-.91-.24c-.48.36-.83.5-.87,1.15,0,.34-.2.6-1,.55s-1.12-.17-1.74.46c-.35.35-.92.8-1.15,1s-.7.15-1.05-.3-3.61-3.31-3.61-3.31a.44.44,0,0,1,.15-.7c.5-.3,2.59-1.19,3-1.35.63-.28.71-.43.2-.6C268.19,16.87,258.14,13.17,257.71,13Z" transform="translate(-18.2 -12.87)"/><path class="cls-7" d="M257.81,13.55s6,12.23,13.73,14.79a18.78,18.78,0,0,0,7.52.8,20.13,20.13,0,0,1-7.32-1.5c-5.29-2.24-9.62-9.67-9.62-9.67a1.18,1.18,0,0,0,1.2-.15,1.51,1.51,0,0,0,.7-1l-.59-.28s.15.34-.36.66a.9.9,0,0,1-1.41-.45,1,1,0,0,1,.6-1.35S259.41,14.36,257.81,13.55Z" transform="translate(-18.2 -12.87)"/><path class="cls-7" d="M275.65,30.35a58.82,58.82,0,0,0,6.21.45,14.3,14.3,0,0,1,6,.85c4.35,1.66,7.5,7.25,7,6.45s-1.78-4.5-4.79-6.3-4.36-2-8-1.85S275.65,30.35,275.65,30.35Z" transform="translate(-18.2 -12.87)"/><path class="cls-7" d="M258.37,18.76s.92-.07,1.15.59c.1.28.21.82-.54.87,0,0-1,0-.55.3a1.27,1.27,0,0,0,1.45,0,.87.87,0,0,0,.16-1.31C259.58,18.61,258.87,17.86,258.37,18.76Z" transform="translate(-18.2 -12.87)"/></g></svg>