<svg id="BioInteractive_Logo" data-name="BioInteractive Logo" xmlns="http://www.w3.org/2000/svg" xmlns:xlink="http://www.w3.org/1999/xlink" viewBox="0 0 104.8 64.21"><defs><style>.cls-1{fill:#058d96;}.cls-2{fill:#00a450;}.cls-3{fill:#52b448;}.cls-4{fill:#8ac341;}.cls-5{fill:url(#New_Gradient_Swatch_5);}.cls-6{fill:#fff;}</style><linearGradient id="New_Gradient_Swatch_5" x1="64.87" y1="17.68" x2="99.33" y2="17.68" gradientUnits="userSpaceOnUse"><stop offset="0" stop-color="#058d96"/><stop offset="1" stop-color="#8ac341"/></linearGradient></defs><title>BioInteractive_black_logo_compact_RGB</title><g id="Logo"><path class="cls-1" d="M8.64,23.82h8.64V34.77h.09c1.48-1.74,3.4-3,7.07-3,4.06,0,7.76,2.49,7.76,7.68V55H23.55V43.1c0-2.62-.31-4.45-2.83-4.45-1.48,0-3.45.74-3.45,4.36V55H8.64Z" transform="translate(-8.64 -5.04)"/><path class="cls-2" d="M36,23.82H44.6V34.77h.09c1.48-1.74,3.4-3,7.07-3,4.06,0,7.76,2.49,7.76,7.68V55H50.88V43.1c0-2.62-.31-4.45-2.83-4.45-1.48,0-3.45.74-3.45,4.36V55H36Z" transform="translate(-8.64 -5.04)"/><path class="cls-3" d="M63.28,32.32h8.33v3h.09c1.75-2.62,4.27-3.58,7.41-3.58a6.73,6.73,0,0,1,6.11,3.53c.35-.26,2.09-3.53,7.72-3.53,5.8,0,7.76,4,7.76,7.68V55H92.06V42.7c0-2.14-.22-4.06-2.83-4.06-2.18,0-2.92,1.7-2.92,4.06V55H77.67V42.7c0-2.14-.22-4.06-2.84-4.06-2.18,0-2.92,1.7-2.92,4.06V55H63.28Z" transform="translate(-8.64 -5.04)"/><rect class="cls-4" x="95.74" y="27.28" width="8.64" height="22.64"/><path class="cls-4" d="M113.24,29.55a4.74,4.74,0,1,0-9.09,0Z" transform="translate(-8.64 -5.04)"/><path d="M95.49,60.94a1.52,1.52,0,1,0-2.91,0Z" transform="translate(-8.64 -5.04)"/><path d="M22,61a1.5,1.5,0,0,0,.06-.43,1.52,1.52,0,1,0-3,0,1.5,1.5,0,0,0,.06.43Z" transform="translate(-8.64 -5.04)"/><path d="M8.64,69V59h4.78c2.25,0,4,.53,4,2.51a2.63,2.63,0,0,1-1.31,2.18A2.23,2.23,0,0,1,17.81,66c0,2.23-1.71,3-4.3,3Zm3.28-7.66V63h1.36c.65,0,1.12-.29,1.12-.87,0-.78-.64-.79-1.33-.79Zm0,3.48v1.85h1.43c.81,0,1.42-.17,1.42-.92s-.76-.93-1.8-.93Z" transform="translate(-8.64 -5.04)"/><path d="M19.16,69V61.77H22V69Z" transform="translate(-8.64 -5.04)"/><path d="M27.39,61.56c2.57,0,4.15,1.51,4.15,3.78,0,2.66-1.8,3.91-4.14,3.91S23.27,68,23.27,65.49,24.94,61.56,27.39,61.56Zm-1.24,3.78c0,1.37.51,2,1.25,2s1.25-.6,1.25-2c0-1.07-.47-1.87-1.22-1.83C26.45,63.5,26.16,64.52,26.16,65.34Z" transform="translate(-8.64 -5.04)"/><path d="M33,69V59h3.28V69Z" transform="translate(-8.64 -5.04)"/><path d="M37.83,61.77h2.64v1.14a2.85,2.85,0,0,1,2.46-1.35c1.92,0,2.82,1.13,2.82,3.12V69H42.86V65.2c0-.72-.19-1.36-1-1.36s-1.12.57-1.12,1.5V69H37.83Z" transform="translate(-8.64 -5.04)"/><path d="M51.76,69c-3.79.21-4.25-.06-4.25-2.57v-3h-1V61.77h1.07V59.51H50.4v2.26h1.39v1.67H50.4v2.64c0,.67.1.9.9.9h.46Z" transform="translate(-8.64 -5.04)"/><path d="M55.63,66.06a1.4,1.4,0,0,0,1.43,1.43,1.15,1.15,0,0,0,1.08-.64h2.76c-.5,1.8-2.33,2.4-4,2.4-2.33,0-4.14-1.33-4.14-3.78a3.85,3.85,0,0,1,4.12-3.92,4.09,4.09,0,0,1,4.28,4.5Zm2.62-1.47A1.31,1.31,0,0,0,57,63.32a1.2,1.2,0,0,0-1.35,1.26Z" transform="translate(-8.64 -5.04)"/><path d="M62.16,61.77h2.62v1.47h0A2.19,2.19,0,0,1,67,61.56a3.49,3.49,0,0,1,.37,0v2.89a4.48,4.48,0,0,0-.6-.08c-1.18,0-1.78.56-1.78,2.13V69H62.16Z" transform="translate(-8.64 -5.04)"/><path d="M73.28,69l-.14-.78a3.64,3.64,0,0,1-2.73,1c-1.37,0-2.6-.68-2.6-2.19,0-3.3,5.18-1.8,5.18-3.17,0-.53-.64-.6-.94-.6s-.95.08-1,.71H68.25c0-1.54,1.1-2.44,4-2.44,3.44,0,3.65,1.28,3.65,3V68a.94.94,0,0,0,.39.93V69ZM73,65.82c-.94.46-2.19.24-2.19,1.18,0,.36.35.61.92.61C72.72,67.61,73.06,66.82,73,65.82Z" transform="translate(-8.64 -5.04)"/><path d="M82.23,64.55a1.1,1.1,0,0,0-.3-.75,1,1,0,0,0-.75-.29c-1.08,0-1.26,1.13-1.26,2,0,1.1.42,1.82,1.26,1.82a1.09,1.09,0,0,0,1.12-1.08h2.92a3.09,3.09,0,0,1-1.36,2.35,4.91,4.91,0,0,1-2.68.68c-2.35,0-4.15-1.32-4.15-3.78s1.75-3.92,4.15-3.92c1.94,0,3.78.83,4,3Z" transform="translate(-8.64 -5.04)"/><path d="M91.17,69c-3.79.21-4.25-.06-4.25-2.57v-3h-1V61.77H87V59.51h2.85v2.26H91.2v1.67H89.81v2.64c0,.67.1.9.9.9h.46Z" transform="translate(-8.64 -5.04)"/><path d="M92.59,69V61.77h2.89V69Z" transform="translate(-8.64 -5.04)"/><path d="M96.35,61.77h2.89l1.28,4.59,1.26-4.59h2.78L102.1,69H98.88Z" transform="translate(-8.64 -5.04)"/><path d="M107.88,66.06a1.4,1.4,0,0,0,1.43,1.43,1.15,1.15,0,0,0,1.08-.64h2.76c-.5,1.8-2.33,2.4-4,2.4-2.33,0-4.14-1.33-4.14-3.78a3.85,3.85,0,0,1,4.12-3.92,4.09,4.09,0,0,1,4.28,4.5Zm2.62-1.47a1.31,1.31,0,0,0-1.28-1.26,1.2,1.2,0,0,0-1.35,1.26Z" transform="translate(-8.64 -5.04)"/><path class="cls-5" d="M65.37,5.13c-.39-.19-.49-.07-.49.21s.21,11.16.21,11.16,0,.66.42.21l2.12-2.26s.35-.49.63-.07,3.6,4.87,3.6,4.87A1.77,1.77,0,0,1,70.1,20a7.82,7.82,0,0,0,.15-1.09.78.78,0,0,0-.91-.82c-.61.14-.47.61-.14,1.09s.14.64,0,.68-.39-.29-.47-.6-.33-1.25-.92-.75.13.77.32,1.19.34.73,0,.68-.76-.74-1.12-.78-1.37.54.67,1.23c.23.08.58.34.21.52s-.46-.09-.77,0-.5.36-.32.64.87.26,1.23.08a1.89,1.89,0,0,0,.79-.53c.16-.23.23-.32.59-.18a4,4,0,0,0,1.77.5,2.91,2.91,0,0,0,2-1c.23-.33.45-.61.73-.24S77.25,24.07,84.38,23a1,1,0,0,1,1.14.86,4.71,4.71,0,0,0,1.8,3.22c.49.36.44.62.07,1.21a1.57,1.57,0,0,0,.38,1.8c.51.11.49-.73.45-1s-.17-.87.21-.91.36.5.36,1-.09.86.32,1,.82.2.93-.38-.14-.67-.33-.94-.42-.55-.06-.8.42.4,1,.75,1-.27.59-.77-1-.59-1-.86.19-.19.73-.25c.33,0,.72-.14.59-.65s-.54-.42-1.66.06-1.35-.89-1.35-1.3,0-.82-.05-1.79.18-1,.78-1c2.48,0,4.59.25,9.67,6,.36.41.5.42.38-.45-.16-1.08-2-7.79-7.59-9.73-.25-.09-.82-.14-.27-1.55s-.73-3.5-.77-3.64-.09-.32.36-.55a1,1,0,0,0,.68-1.16.61.61,0,0,0-1-.38c-.35.29-.16,1-.46,1s-.16-.41-.1-1-.55-.75-1-.47A.82.82,0,0,0,89,11.54c.18.32.57.5.27.8s-.67-.28-.77-.56c-.18-.5-.66-1.07-1.31-.33s.25.78.77,1.07.5.77.13.77-.8-.71-1.09,0a.65.65,0,0,0,.67.87c.45-.09.92-.38,1.37-.24s.45.55.32.86-1.23,2.36-1.23,2.36,0,.18-.86.23-4.91.41-7.09-.27S78,16.3,78.38,15.8s.77-1.09,1.27-1a2.63,2.63,0,0,1,1.28,1.07c.24.39.79.58,1,.2s-.4-.61-.58-.77-.23-.41.18-.41.82.28,1.14.24a.44.44,0,0,0,.31-.72c-.21-.36-.95-.3-1.27-.38s0-.4,1-.5.4-1.63-.45-.9c-.34.29-.42.4-.69.5s-.49-.17-.27-.44.8-.44.68-.75a.51.51,0,0,0-.82-.21c-.44.33-.75.45-.79,1,0,.31-.18.55-.86.5s-1-.15-1.58.41c-.32.32-.84.73-1,.91s-.64.14-1-.27-3.27-3-3.27-3a.4.4,0,0,1,.14-.64c.45-.27,2.35-1.08,2.68-1.23.57-.25.65-.39.18-.55C74.88,8.67,65.76,5.32,65.37,5.13Z" transform="translate(-8.64 -5.04)"/><path class="cls-6" d="M65.46,5.66s5.41,11.09,12.45,13.41a17,17,0,0,0,6.82.73,18.26,18.26,0,0,1-6.64-1.36c-4.8-2-8.73-8.77-8.73-8.77a1.07,1.07,0,0,0,1.09-.14,1.37,1.37,0,0,0,.64-.89l-.53-.26s.14.31-.33.6A.82.82,0,0,1,69,8.57a.91.91,0,0,1,.54-1.23S66.91,6.39,65.46,5.66Z" transform="translate(-8.64 -5.04)"/><path class="cls-6" d="M81.64,20.89a53.39,53.39,0,0,0,5.63.41,13,13,0,0,1,5.46.77c3.94,1.5,6.8,6.58,6.39,5.85s-1.61-4.08-4.34-5.71-4-1.77-7.23-1.68S81.64,20.89,81.64,20.89Z" transform="translate(-8.64 -5.04)"/><path class="cls-6" d="M66,10.39s.83-.07,1,.53c.09.25.19.74-.5.79,0,0-.86,0-.5.27a1.15,1.15,0,0,0,1.31,0,.79.79,0,0,0,.14-1.19C67.06,10.25,66.43,9.57,66,10.39Z" transform="translate(-8.64 -5.04)"/></g></svg>